# Wavefront OBJ file automatically generated by Tiled2Unity

# Vertices (Count = 297)
v -19.2 -6.08 0
v -19.52 -6.08 0
v -19.52 -5.76 0
v -19.2 -5.76 0
v -19.84 -6.08 0
v -19.84 -5.76 0
v -20.16 -6.08 0
v -20.16 -5.76 0
v -19.2 -6.4 0
v -19.52 -6.4 0
v -19.84 -6.4 0
v -20.16 -6.4 0
v -17.6 -7.04 0
v -17.92 -7.04 0
v -17.92 -6.72 0
v -17.6 -6.72 0
v -18.24 -7.04 0
v -18.24 -6.72 0
v -18.56 -7.04 0
v -18.56 -6.72 0
v -18.88 -7.04 0
v -18.88 -6.72 0
v -19.2 -7.04 0
v -19.2 -6.72 0
v -19.52 -7.04 0
v -19.52 -6.72 0
v -19.84 -7.04 0
v -19.84 -6.72 0
v -20.16 -7.04 0
v -20.16 -6.72 0
v -20.48 -7.04 0
v -20.48 -6.72 0
v -20.8 -7.04 0
v -20.8 -6.72 0
v -21.12 -7.04 0
v -21.12 -6.72 0
v -21.44 -7.04 0
v -21.44 -6.72 0
v -21.76 -7.04 0
v -21.76 -6.72 0
v -22.08 -7.04 0
v -22.08 -6.72 0
v -17.6 -7.36 0
v -17.92 -7.36 0
v -18.24 -7.36 0
v -18.56 -7.36 0
v -18.88 -7.36 0
v -19.2 -7.36 0
v -19.52 -7.36 0
v -19.84 -7.36 0
v -20.16 -7.36 0
v -20.48 -7.36 0
v -20.8 -7.36 0
v -21.12 -7.36 0
v -21.44 -7.36 0
v -21.76 -7.36 0
v -22.08 -7.36 0
v -15.68 -7.68 0
v -16 -7.68 0
v -16 -7.36 0
v -15.68 -7.36 0
v -16.32 -7.68 0
v -16.32 -7.36 0
v -16.64 -7.68 0
v -16.64 -7.36 0
v -16.96 -7.68 0
v -16.96 -7.36 0
v -17.28 -7.68 0
v -17.28 -7.36 0
v -15.68 -8 0
v -16 -8 0
v -16.32 -8 0
v -16.64 -8 0
v -16.96 -8 0
v -17.28 -8 0
v -22.4 -8.32 0
v -22.72 -8.32 0
v -22.72 -8 0
v -22.4 -8 0
v -23.04 -8.32 0
v -23.04 -8 0
v -22.4 -8.639999 0
v -22.72 -8.639999 0
v -23.04 -8.639999 0
v -13.12 -8.96 0
v -13.44 -8.96 0
v -13.44 -8.639999 0
v -13.12 -8.639999 0
v -13.76 -8.96 0
v -13.76 -8.639999 0
v -14.08 -8.96 0
v -14.08 -8.639999 0
v -14.4 -8.96 0
v -14.4 -8.639999 0
v -13.12 -9.28 0
v -13.44 -9.28 0
v -13.76 -9.28 0
v -14.08 -9.28 0
v -14.4 -9.28 0
v -14.72 -10.24 0
v -15.04 -10.24 0
v -15.04 -9.92 0
v -14.72 -9.92 0
v -15.36 -10.24 0
v -15.36 -9.92 0
v -15.68 -10.24 0
v -15.68 -9.92 0
v -16 -10.24 0
v -16 -9.92 0
v -23.04 -10.24 0
v -23.36 -10.24 0
v -23.36 -9.92 0
v -23.04 -9.92 0
v -23.68 -10.24 0
v -23.68 -9.92 0
v -14.72 -10.56 0
v -15.04 -10.56 0
v -15.36 -10.56 0
v -15.68 -10.56 0
v -16 -10.56 0
v -23.04 -10.56 0
v -23.36 -10.56 0
v -23.68 -10.56 0
v -13.12 -11.52 0
v -13.44 -11.52 0
v -13.44 -11.2 0
v -13.12 -11.2 0
v -13.76 -11.52 0
v -13.76 -11.2 0
v -14.08 -11.52 0
v -14.08 -11.2 0
v -14.4 -11.52 0
v -14.4 -11.2 0
v -13.12 -11.84 0
v -13.44 -11.84 0
v -13.76 -11.84 0
v -14.08 -11.84 0
v -14.4 -11.84 0
v -4.8 -12.48 0
v -5.12 -12.48 0
v -5.12 -12.16 0
v -4.8 -12.16 0
v -5.44 -12.48 0
v -5.44 -12.16 0
v -5.76 -12.48 0
v -5.76 -12.16 0
v -6.08 -12.48 0
v -6.08 -12.16 0
v -6.4 -12.48 0
v -6.4 -12.16 0
v -6.72 -12.48 0
v -6.72 -12.16 0
v -7.04 -12.48 0
v -7.04 -12.16 0
v -7.36 -12.48 0
v -7.36 -12.16 0
v -7.68 -12.48 0
v -7.68 -12.16 0
v -8 -12.48 0
v -8 -12.16 0
v -8.32 -12.48 0
v -8.32 -12.16 0
v -8.639999 -12.48 0
v -8.639999 -12.16 0
v -8.96 -12.48 0
v -8.96 -12.16 0
v -9.28 -12.48 0
v -9.28 -12.16 0
v -9.599999 -12.48 0
v -9.599999 -12.16 0
v -9.92 -12.48 0
v -9.92 -12.16 0
v -10.24 -12.48 0
v -10.24 -12.16 0
v -10.56 -12.48 0
v -10.56 -12.16 0
v -10.88 -12.48 0
v -10.88 -12.16 0
v -11.2 -12.48 0
v -11.2 -12.16 0
v -11.52 -12.48 0
v -11.52 -12.16 0
v -11.84 -12.48 0
v -11.84 -12.16 0
v -12.16 -12.48 0
v -12.16 -12.16 0
v -4.8 -12.8 0
v -5.12 -12.8 0
v -5.44 -12.8 0
v -5.76 -12.8 0
v -6.08 -12.8 0
v -6.4 -12.8 0
v -6.72 -12.8 0
v -7.04 -12.8 0
v -7.36 -12.8 0
v -7.68 -12.8 0
v -8 -12.8 0
v -8.32 -12.8 0
v -8.639999 -12.8 0
v -8.96 -12.8 0
v -9.28 -12.8 0
v -9.599999 -12.8 0
v -9.92 -12.8 0
v -10.24 -12.8 0
v -10.56 -12.8 0
v -10.88 -12.8 0
v -11.2 -12.8 0
v -11.52 -12.8 0
v -11.84 -12.8 0
v -12.16 -12.8 0
v -24.32 -13.12 0
v -24.64 -13.12 0
v -24.64 -12.8 0
v -24.32 -12.8 0
v -24.96 -13.12 0
v -24.96 -12.8 0
v -3.2 -13.44 0
v -3.52 -13.44 0
v -3.52 -13.12 0
v -3.2 -13.12 0
v -3.84 -13.44 0
v -3.84 -13.12 0
v -4.16 -13.44 0
v -4.16 -13.12 0
v -4.48 -13.44 0
v -4.48 -13.12 0
v -24.32 -13.44 0
v -24.64 -13.44 0
v -24.96 -13.44 0
v -3.2 -13.76 0
v -3.52 -13.76 0
v -3.84 -13.76 0
v -4.16 -13.76 0
v -4.48 -13.76 0
v -1.6 -14.4 0
v -1.92 -14.4 0
v -1.92 -14.08 0
v -1.6 -14.08 0
v -2.24 -14.4 0
v -2.24 -14.08 0
v -2.56 -14.4 0
v -2.56 -14.08 0
v -2.88 -14.4 0
v -2.88 -14.08 0
v -1.6 -14.72 0
v -1.92 -14.72 0
v -2.24 -14.72 0
v -2.56 -14.72 0
v -2.88 -14.72 0
v -24.96 -14.72 0
v -25.28 -14.72 0
v -25.28 -14.4 0
v -24.96 -14.4 0
v -25.6 -14.72 0
v -25.6 -14.4 0
v -25.92 -14.72 0
v -25.92 -14.4 0
v -26.24 -14.72 0
v -26.24 -14.4 0
v -26.56 -14.72 0
v -26.56 -14.4 0
v -26.88 -14.72 0
v -26.88 -14.4 0
v -27.2 -14.72 0
v -27.2 -14.4 0
v -27.52 -14.72 0
v -27.52 -14.4 0
v -27.84 -14.72 0
v -27.84 -14.4 0
v -28.16 -14.72 0
v -28.16 -14.4 0
v -24.96 -15.04 0
v -25.28 -15.04 0
v -25.6 -15.04 0
v -25.92 -15.04 0
v -26.24 -15.04 0
v -26.56 -15.04 0
v -26.88 -15.04 0
v -27.2 -15.04 0
v -27.52 -15.04 0
v -27.84 -15.04 0
v -28.16 -15.04 0
v 0 -15.36 0
v -0.32 -15.36 0
v -0.32 -15.04 0
v 0 -15.04 0
v -0.64 -15.36 0
v -0.64 -15.04 0
v -0.96 -15.36 0
v -0.96 -15.04 0
v -1.28 -15.36 0
v -1.28 -15.04 0
v 0 -15.68 0
v -0.32 -15.68 0
v -0.64 -15.68 0
v -0.96 -15.68 0
v -1.28 -15.68 0

# Texture cooridinates (Count = 72)
vt 0.0001220703 0.5001221
vt 0.1665446 0.5001221
vt 0.1665446 0.6665446
vt 0.0001220703 0.6665446
vt 0.1667887 0.5001221
vt 0.3332113 0.5001221
vt 0.3332113 0.6665446
vt 0.1667887 0.6665446
vt 0.3334554 0.5001221
vt 0.4998779 0.5001221
vt 0.4998779 0.6665446
vt 0.3334554 0.6665446
vt 0.0001220703 0.3334554
vt 0.1665446 0.3334554
vt 0.1665446 0.4998779
vt 0.0001220703 0.4998779
vt 0.1667887 0.3334554
vt 0.3332113 0.3334554
vt 0.3332113 0.4998779
vt 0.1667887 0.4998779
vt 0.3334554 0.3334554
vt 0.4998779 0.3334554
vt 0.4998779 0.4998779
vt 0.3334554 0.4998779
vt 0.0001220703 0.8334554
vt 0.1665446 0.8334554
vt 0.1665446 0.9998779
vt 0.0001220703 0.9998779
vt 0.1667887 0.8334554
vt 0.3332113 0.8334554
vt 0.3332113 0.9998779
vt 0.1667887 0.9998779
vt 0.0001220703 0.6667887
vt 0.1665446 0.6667887
vt 0.1665446 0.8332112
vt 0.0001220703 0.8332112
vt 0.1667887 0.6667887
vt 0.3332113 0.6667887
vt 0.3332113 0.8332112
vt 0.1667887 0.8332112
vt 0.3334554 0.8334554
vt 0.4998779 0.8334554
vt 0.4998779 0.9998779
vt 0.3334554 0.9998779
vt 0.3334554 0.6667887
vt 0.4998779 0.6667887
vt 0.4998779 0.8332112
vt 0.3334554 0.8332112
vt 0.0001220703 0.1667888
vt 0.1665446 0.1667888
vt 0.1665446 0.3332112
vt 0.0001220703 0.3332112
vt 0.1667887 0.1667888
vt 0.3332113 0.1667888
vt 0.3332113 0.3332112
vt 0.1667887 0.3332112
vt 0.3334554 0.1667888
vt 0.4998779 0.1667888
vt 0.4998779 0.3332112
vt 0.3334554 0.3332112
vt 0.0001220703 0.0001220703
vt 0.1665446 0.0001220703
vt 0.1665446 0.1665446
vt 0.0001220703 0.1665446
vt 0.1667887 0.0001220703
vt 0.3332113 0.0001220703
vt 0.3332113 0.1665446
vt 0.1667887 0.1665446
vt 0.3334554 0.0001220703
vt 0.4998779 0.0001220703
vt 0.4998779 0.1665446
vt 0.3334554 0.1665446

# Normal
vn 0 0 -1

# Groups (Count = 2)

g mesh_0001
f 1/1/1 2/2/1 3/3/1 4/4/1
f 2/5/1 5/6/1 6/7/1 3/8/1
f 5/9/1 7/10/1 8/11/1 6/12/1
f 9/13/1 10/14/1 2/15/1 1/16/1
f 10/17/1 11/18/1 5/19/1 2/20/1
f 11/21/1 12/22/1 7/23/1 5/24/1
f 13/25/1 14/26/1 15/27/1 16/28/1
f 14/29/1 17/30/1 18/31/1 15/32/1
f 17/29/1 19/30/1 20/31/1 18/32/1
f 19/29/1 21/30/1 22/31/1 20/32/1
f 21/29/1 23/30/1 24/31/1 22/32/1
f 23/29/1 25/30/1 26/31/1 24/32/1
f 25/29/1 27/30/1 28/31/1 26/32/1
f 27/29/1 29/30/1 30/31/1 28/32/1
f 29/29/1 31/30/1 32/31/1 30/32/1
f 31/29/1 33/30/1 34/31/1 32/32/1
f 33/29/1 35/30/1 36/31/1 34/32/1
f 35/29/1 37/30/1 38/31/1 36/32/1
f 37/29/1 39/30/1 40/31/1 38/32/1
f 39/9/1 41/10/1 42/11/1 40/12/1
f 43/33/1 44/34/1 14/35/1 13/36/1
f 44/37/1 45/38/1 17/39/1 14/40/1
f 45/37/1 46/38/1 19/39/1 17/40/1
f 46/37/1 47/38/1 21/39/1 19/40/1
f 47/37/1 48/38/1 23/39/1 21/40/1
f 48/37/1 49/38/1 25/39/1 23/40/1
f 49/37/1 50/38/1 27/39/1 25/40/1
f 50/37/1 51/38/1 29/39/1 27/40/1
f 51/37/1 52/38/1 31/39/1 29/40/1
f 52/37/1 53/38/1 33/39/1 31/40/1
f 53/37/1 54/38/1 35/39/1 33/40/1
f 54/37/1 55/38/1 37/39/1 35/40/1
f 55/37/1 56/38/1 39/39/1 37/40/1
f 56/21/1 57/22/1 41/23/1 39/24/1
f 58/1/1 59/2/1 60/3/1 61/4/1
f 59/5/1 62/6/1 63/7/1 60/8/1
f 62/5/1 64/6/1 65/7/1 63/8/1
f 64/5/1 66/6/1 67/7/1 65/8/1
f 66/9/1 68/10/1 69/11/1 67/12/1
f 70/13/1 71/14/1 59/15/1 58/16/1
f 71/17/1 72/18/1 62/19/1 59/20/1
f 72/17/1 73/18/1 64/19/1 62/20/1
f 73/17/1 74/18/1 66/19/1 64/20/1
f 74/21/1 75/22/1 68/23/1 66/24/1
f 76/25/1 77/26/1 78/27/1 79/28/1
f 77/41/1 80/42/1 81/43/1 78/44/1
f 82/33/1 83/34/1 77/35/1 76/36/1
f 83/45/1 84/46/1 80/47/1 77/48/1
f 85/25/1 86/26/1 87/27/1 88/28/1
f 86/29/1 89/30/1 90/31/1 87/32/1
f 89/29/1 91/30/1 92/31/1 90/32/1
f 91/41/1 93/42/1 94/43/1 92/44/1
f 95/33/1 96/34/1 86/35/1 85/36/1
f 96/37/1 97/38/1 89/39/1 86/40/1
f 97/37/1 98/38/1 91/39/1 89/40/1
f 98/45/1 99/46/1 93/47/1 91/48/1
f 100/1/1 101/2/1 102/3/1 103/4/1
f 101/5/1 104/6/1 105/7/1 102/8/1
f 104/5/1 106/6/1 107/7/1 105/8/1
f 106/9/1 108/10/1 109/11/1 107/12/1
f 110/25/1 111/26/1 112/27/1 113/28/1
f 111/41/1 114/42/1 115/43/1 112/44/1
f 116/13/1 117/14/1 101/15/1 100/16/1
f 117/17/1 118/18/1 104/19/1 101/20/1
f 118/17/1 119/18/1 106/19/1 104/20/1
f 119/21/1 120/22/1 108/23/1 106/24/1
f 121/33/1 122/34/1 111/35/1 110/36/1
f 122/45/1 123/46/1 114/47/1 111/48/1
f 124/25/1 125/26/1 126/27/1 127/28/1
f 125/29/1 128/30/1 129/31/1 126/32/1
f 128/5/1 130/6/1 131/7/1 129/8/1
f 130/9/1 132/10/1 133/11/1 131/12/1
f 134/33/1 135/34/1 125/35/1 124/36/1
f 135/37/1 136/38/1 128/39/1 125/40/1
f 136/17/1 137/18/1 130/19/1 128/20/1
f 137/21/1 138/22/1 132/23/1 130/24/1
f 139/49/1 140/50/1 141/51/1 142/52/1
f 140/53/1 143/54/1 144/55/1 141/56/1
f 143/53/1 145/54/1 146/55/1 144/56/1
f 145/53/1 147/54/1 148/55/1 146/56/1
f 147/53/1 149/54/1 150/55/1 148/56/1
f 149/53/1 151/54/1 152/55/1 150/56/1
f 151/53/1 153/54/1 154/55/1 152/56/1
f 153/53/1 155/54/1 156/55/1 154/56/1
f 155/53/1 157/54/1 158/55/1 156/56/1
f 157/53/1 159/54/1 160/55/1 158/56/1
f 159/53/1 161/54/1 162/55/1 160/56/1
f 161/53/1 163/54/1 164/55/1 162/56/1
f 163/53/1 165/54/1 166/55/1 164/56/1
f 165/53/1 167/54/1 168/55/1 166/56/1
f 167/53/1 169/54/1 170/55/1 168/56/1
f 169/53/1 171/54/1 172/55/1 170/56/1
f 171/53/1 173/54/1 174/55/1 172/56/1
f 173/53/1 175/54/1 176/55/1 174/56/1
f 175/53/1 177/54/1 178/55/1 176/56/1
f 177/53/1 179/54/1 180/55/1 178/56/1
f 179/53/1 181/54/1 182/55/1 180/56/1
f 181/53/1 183/54/1 184/55/1 182/56/1
f 183/57/1 185/58/1 186/59/1 184/60/1
f 187/61/1 188/62/1 140/63/1 139/64/1
f 188/65/1 189/66/1 143/67/1 140/68/1
f 189/65/1 190/66/1 145/67/1 143/68/1
f 190/65/1 191/66/1 147/67/1 145/68/1
f 191/65/1 192/66/1 149/67/1 147/68/1
f 192/65/1 193/66/1 151/67/1 149/68/1
f 193/65/1 194/66/1 153/67/1 151/68/1
f 194/65/1 195/66/1 155/67/1 153/68/1
f 195/65/1 196/66/1 157/67/1 155/68/1
f 196/65/1 197/66/1 159/67/1 157/68/1
f 197/65/1 198/66/1 161/67/1 159/68/1
f 198/65/1 199/66/1 163/67/1 161/68/1
f 199/65/1 200/66/1 165/67/1 163/68/1
f 200/65/1 201/66/1 167/67/1 165/68/1
f 201/65/1 202/66/1 169/67/1 167/68/1
f 202/65/1 203/66/1 171/67/1 169/68/1
f 203/65/1 204/66/1 173/67/1 171/68/1
f 204/65/1 205/66/1 175/67/1 173/68/1
f 205/65/1 206/66/1 177/67/1 175/68/1
f 206/65/1 207/66/1 179/67/1 177/68/1
f 207/65/1 208/66/1 181/67/1 179/68/1
f 208/65/1 209/66/1 183/67/1 181/68/1
f 209/69/1 210/70/1 185/71/1 183/72/1
f 211/1/1 212/2/1 213/3/1 214/4/1
f 212/9/1 215/10/1 216/11/1 213/12/1
f 217/1/1 218/2/1 219/3/1 220/4/1
f 218/5/1 221/6/1 222/7/1 219/8/1
f 221/5/1 223/6/1 224/7/1 222/8/1
f 223/9/1 225/10/1 226/11/1 224/12/1
f 227/13/1 228/14/1 212/15/1 211/16/1
f 228/21/1 229/22/1 215/23/1 212/24/1
f 230/13/1 231/14/1 218/15/1 217/16/1
f 231/17/1 232/18/1 221/19/1 218/20/1
f 232/17/1 233/18/1 223/19/1 221/20/1
f 233/21/1 234/22/1 225/23/1 223/24/1
f 235/1/1 236/2/1 237/3/1 238/4/1
f 236/5/1 239/6/1 240/7/1 237/8/1
f 239/5/1 241/6/1 242/7/1 240/8/1
f 241/9/1 243/10/1 244/11/1 242/12/1
f 245/13/1 246/14/1 236/15/1 235/16/1
f 246/17/1 247/18/1 239/19/1 236/20/1
f 247/17/1 248/18/1 241/19/1 239/20/1
f 248/21/1 249/22/1 243/23/1 241/24/1
f 250/25/1 251/26/1 252/27/1 253/28/1
f 251/29/1 254/30/1 255/31/1 252/32/1
f 254/29/1 256/30/1 257/31/1 255/32/1
f 256/29/1 258/30/1 259/31/1 257/32/1
f 258/29/1 260/30/1 261/31/1 259/32/1
f 260/29/1 262/30/1 263/31/1 261/32/1
f 262/29/1 264/30/1 265/31/1 263/32/1
f 264/29/1 266/30/1 267/31/1 265/32/1
f 266/29/1 268/30/1 269/31/1 267/32/1
f 268/41/1 270/42/1 271/43/1 269/44/1
f 272/33/1 273/34/1 251/35/1 250/36/1
f 273/37/1 274/38/1 254/39/1 251/40/1
f 274/37/1 275/38/1 256/39/1 254/40/1
f 275/37/1 276/38/1 258/39/1 256/40/1
f 276/37/1 277/38/1 260/39/1 258/40/1
f 277/37/1 278/38/1 262/39/1 260/40/1
f 278/37/1 279/38/1 264/39/1 262/40/1
f 279/37/1 280/38/1 266/39/1 264/40/1
f 280/37/1 281/38/1 268/39/1 266/40/1
f 281/45/1 282/46/1 270/47/1 268/48/1
f 283/1/1 284/2/1 285/3/1 286/4/1
f 284/5/1 287/6/1 288/7/1 285/8/1
f 287/5/1 289/6/1 290/7/1 288/8/1
f 289/9/1 291/10/1 292/11/1 290/12/1
f 293/13/1 294/14/1 284/15/1 283/16/1
f 294/17/1 295/18/1 287/19/1 284/20/1
f 295/17/1 296/18/1 289/19/1 287/20/1
f 296/21/1 297/22/1 291/23/1 289/24/1

